<svg width="32" height="32" viewBox="0 0 32 32" fill="none" xmlns="http://www.w3.org/2000/svg">
<g clip-path="url(#clip0_86_623)">
<path d="M16 28C22.6274 28 28 22.6274 28 16C28 9.37258 22.6274 4 16 4C9.37258 4 4 9.37258 4 16C4 22.6274 9.37258 28 16 28Z" stroke="#2D2B5C" stroke-width="1.5" stroke-linecap="round" stroke-linejoin="round"/>
<path d="M21 16C21 24 16 28 16 28C16 28 11 24 11 16C11 8 16 4 16 4C16 4 21 8 21 16Z" stroke="#2D2B5C" stroke-width="1.5" stroke-linecap="round" stroke-linejoin="round"/>
<path d="M4.68359 12H27.3186" stroke="#2D2B5C" stroke-width="1.5" stroke-linecap="round" stroke-linejoin="round"/>
<path d="M4.68359 20H27.3186" stroke="#2D2B5C" stroke-width="1.5" stroke-linecap="round" stroke-linejoin="round"/>
</g>
<defs>
<clipPath id="clip0_86_623">
<rect width="32" height="32" fill="white"/>
</clipPath>
</defs>
</svg>
