<svg xmlns="http://www.w3.org/2000/svg" xmlns:xlink="http://www.w3.org/1999/xlink" width="480" zoomAndPan="magnify" viewBox="0 0 360 359.999987" height="480" preserveAspectRatio="xMidYMid meet" version="1.0"><rect x="-36" width="432" fill="#ffffff" y="-35.999999" height="431.999984" fill-opacity="1"/><rect x="-36" width="432" fill="#ffffff" y="-35.999999" height="431.999984" fill-opacity="1"/><path fill="#58585a" d="M 220.28125 9.40625 C 221.714844 9.742188 221.714844 9.742188 223.183594 10.085938 C 238.117188 13.71875 251.304688 19.574219 264.753906 26.921875 C 266.183594 27.671875 267.613281 28.421875 269.082031 29.191406 C 280.066406 35.203125 289.253906 42.769531 298.449219 51.175781 C 300.371094 52.929688 300.371094 52.929688 302.328125 54.714844 C 333.179688 84.199219 352.875 126.699219 353.980469 169.53125 C 354.503906 212.65625 344.875 252.761719 317.316406 286.976562 C 316.742188 287.691406 316.171875 288.40625 315.578125 289.144531 C 288.5625 322.625 248.691406 347.144531 205.523438 352.621094 C 155.035156 357.273438 107.578125 346.660156 67.984375 313.925781 C 40.75 291.042969 22.015625 262.214844 11.714844 228.195312 C 11.3125 226.867188 11.3125 226.867188 10.902344 225.515625 C 6.585938 210.425781 5.4375 195.503906 5.484375 179.855469 C 5.484375 178.910156 5.484375 177.96875 5.484375 176.996094 C 5.542969 161.085938 6.8125 145.984375 11.378906 130.675781 C 11.652344 129.753906 11.929688 128.832031 12.210938 127.886719 C 26.410156 82.417969 58.601562 45.160156 100.589844 23.144531 C 137.554688 4.753906 180.089844 -0.0898438 220.28125 9.40625 Z M 216.238281 18.839844 C 216.871094 19.769531 217.503906 20.695312 218.160156 21.65625 C 219.417969 23.554688 219.417969 23.554688 220.699219 25.492188 C 221.53125 26.726562 222.359375 27.960938 223.210938 29.234375 C 228.546875 38.835938 230.316406 47.769531 230.296875 58.667969 C 230.3125 59.890625 230.324219 61.113281 230.339844 62.375 C 230.378906 66.378906 230.390625 70.378906 230.402344 74.382812 C 230.425781 77.175781 230.449219 79.96875 230.476562 82.757812 C 230.539062 90.078125 230.582031 97.394531 230.617188 104.710938 C 230.65625 112.1875 230.71875 119.667969 230.78125 127.144531 C 230.894531 141.796875 230.988281 156.445312 231.0625 171.097656 C 238.691406 172.066406 246.144531 172.613281 253.847656 172.597656 C 254.835938 172.597656 255.824219 172.597656 256.839844 172.597656 C 260.054688 172.597656 263.273438 172.585938 266.488281 172.578125 C 268.738281 172.574219 270.984375 172.574219 273.234375 172.570312 C 279.117188 172.566406 285 172.554688 290.882812 172.539062 C 296.898438 172.523438 302.917969 172.519531 308.933594 172.511719 C 320.714844 172.496094 332.492188 172.472656 344.273438 172.445312 C 344.074219 169.429688 343.867188 166.414062 343.664062 163.398438 C 343.550781 161.71875 343.4375 160.039062 343.320312 158.308594 C 340.023438 118.886719 316.855469 79.414062 287.234375 53.980469 C 266.824219 37.125 242.316406 24.023438 216.238281 18.839844 Z M 56.972656 68.917969 C 33.363281 94.078125 15.269531 131.695312 15.402344 166.625 C 15.402344 167.71875 15.40625 168.808594 15.410156 169.929688 C 15.414062 170.761719 15.417969 171.589844 15.421875 172.445312 C 28.765625 172.476562 42.113281 172.5 55.457031 172.515625 C 61.652344 172.523438 67.851562 172.53125 74.046875 172.546875 C 80.035156 172.5625 86.019531 172.570312 92.003906 172.574219 C 94.285156 172.574219 96.5625 172.582031 98.839844 172.585938 C 102.042969 172.597656 105.246094 172.597656 108.449219 172.597656 C 109.378906 172.601562 110.3125 172.609375 111.273438 172.613281 C 117.628906 172.601562 123.703125 171.980469 129.980469 171.097656 C 129.984375 169.582031 129.992188 168.0625 129.996094 166.5 C 130.046875 152.148438 130.125 137.796875 130.230469 123.449219 C 130.28125 116.070312 130.324219 108.695312 130.347656 101.316406 C 130.367188 94.1875 130.414062 87.058594 130.476562 79.929688 C 130.496094 77.21875 130.507812 74.511719 130.507812 71.800781 C 130.527344 51.488281 132.144531 35.550781 144.804688 18.839844 C 112.230469 18.839844 78.617188 47.316406 56.972656 68.917969 Z M 140.761719 172.445312 C 139.9375 181.539062 139.210938 190.28125 139.175781 199.351562 C 139.167969 200.460938 139.160156 201.570312 139.148438 202.710938 C 139.125 206.320312 139.109375 209.929688 139.09375 213.542969 C 139.089844 214.789062 139.082031 216.035156 139.078125 217.320312 C 139.050781 223.90625 139.03125 230.492188 139.015625 237.078125 C 139.003906 243.84375 138.957031 250.605469 138.902344 257.371094 C 138.867188 262.613281 138.855469 267.851562 138.851562 273.09375 C 138.84375 275.585938 138.828125 278.078125 138.804688 280.570312 C 138.632812 298.621094 139.363281 313.746094 152.503906 327.472656 C 161.335938 334.980469 171.617188 338.738281 183.132812 338.546875 C 194.855469 337.296875 204.402344 332.082031 212.195312 323.355469 C 219.871094 313.230469 222.035156 303.980469 221.933594 291.453125 C 221.933594 290.164062 221.933594 288.875 221.933594 287.546875 C 221.933594 283.304688 221.910156 279.0625 221.890625 274.816406 C 221.886719 271.871094 221.882812 268.921875 221.878906 265.972656 C 221.867188 258.222656 221.84375 250.472656 221.8125 242.726562 C 221.78125 233.421875 221.769531 224.117188 221.753906 214.8125 C 221.726562 200.691406 221.675781 186.566406 221.628906 172.445312 C 194.941406 172.445312 168.257812 172.445312 140.761719 172.445312 Z M 140.761719 172.445312 " fill-opacity="1" fill-rule="nonzero"/></svg>